<?xml version="1.0" encoding="UTF-8" standalone="no"?>
<svg width="559px" height="631px" viewBox="0 0 559 631" version="1.1" xmlns="http://www.w3.org/2000/svg" xmlns:xlink="http://www.w3.org/1999/xlink">
    <!-- Generator: Sketch 46.2 (44496) - http://www.bohemiancoding.com/sketch -->
    <title>map</title>
    <desc>Created with Sketch.</desc>
    <defs>
        <filter x="-4.6%" y="-3.5%" width="109.9%" height="109.4%" filterUnits="objectBoundingBox" id="filter-1">
            <feOffset dx="0" dy="2" in="SourceAlpha" result="shadowOffsetOuter1"></feOffset>
            <feGaussianBlur stdDeviation="2" in="shadowOffsetOuter1" result="shadowBlurOuter1"></feGaussianBlur>
            <feColorMatrix values="0 0 0 0 0   0 0 0 0 0   0 0 0 0 0  0 0 0 0.5 0" type="matrix" in="shadowBlurOuter1" result="shadowMatrixOuter1"></feColorMatrix>
            <feMerge>
                <feMergeNode in="shadowMatrixOuter1"></feMergeNode>
                <feMergeNode in="SourceGraphic"></feMergeNode>
            </feMerge>
        </filter>
    </defs>
    <g id="tablette-768" stroke="none" stroke-width="1" fill="none" fill-rule="evenodd">
        <g id="Usine" transform="translate(-102.000000, -2077.000000)">
            <g id="partie-1" transform="translate(0.000000, 894.000000)">
                <g id="map" transform="translate(82.000000, 1159.000000)">
                    <g id="Map" transform="translate(0.000000, 24.000000)">
                        <g id="carte" fill="#DDDDDD">
                            <path d="M325.066185,0.824811802 L291.216945,12.1076595 C289.281387,12.7526128 287.992875,14.5842802 288.039591,16.6237271 L288.841425,51.9211491 C288.881865,53.6998257 287.902931,55.3467226 286.32018,56.1604097 L230.819335,84.7042992 C227.434202,86.4446272 227.461394,91.2932815 230.86605,92.9959581 L234.880798,95.0033317 C238.359362,96.7422652 238.291729,101.729672 234.767844,103.37378 L216.511133,111.893438 C215.593557,112.322245 214.560934,112.438685 213.570844,112.226722 L178.24344,104.656714 C176.479406,104.278806 175.093279,102.914294 174.687481,101.156535 L170.506789,83.0371821 C170.019414,80.9273133 168.141728,79.4338106 165.976777,79.4338106 L150.15555,79.4338106 C147.107187,79.4338106 144.883667,82.3176234 145.659702,85.2648856 L161.542985,145.62066 C162.309956,148.537244 160.140821,151.400836 157.125926,151.452433 L109.661547,152.256358 C108.133182,152.282854 106.688487,151.554928 105.800195,150.31104 L94.8345941,134.95906 C93.7399167,133.425814 91.8280659,132.705558 89.9936096,133.134365 L24.2927408,148.493317 C21.9527806,149.039959 20.4146541,151.281607 20.7472408,153.662008 L25.4947943,187.68556 C25.7095463,189.225081 26.6794166,190.555428 28.0801854,191.230363 L128.505339,239.649272 C130.448566,240.587069 131.492345,242.738773 131.023795,244.845853 L128.388899,256.704626 C128.161597,257.72679 128.285707,258.794972 128.742403,259.73765 L142.232037,287.61776 L164.393329,334.709112 C164.753109,335.473992 164.897439,336.323238 164.81098,337.164118 L151.838006,463.186597 C151.745273,464.091623 151.388282,464.949934 150.811659,465.65485 L137.982318,481.335234 C136.216192,483.493212 136.734246,486.708217 139.088849,488.203115 L193.283053,522.612244 C193.936374,523.027803 194.682428,523.27184 195.454977,523.325528 L244.592051,526.714147 C247.126543,526.889156 249.332632,524.995434 249.543898,522.462336 L249.552962,522.349382 C249.822797,519.116946 253.235122,517.147224 256.16844,518.530561 L315.186198,546.3528 C315.947591,546.711883 316.792654,546.85691 317.630745,546.77324 L358.875682,542.649025 C361.493147,542.386861 363.372227,540.007855 363.020117,537.400849 L359.278691,509.718756 C359.064636,508.126245 359.68658,506.535127 360.925588,505.511569 L400.580105,472.754217 C401.758452,471.780163 403.341203,471.447577 404.811696,471.866622 L496.72765,497.999432 C498.146547,498.402441 499.673518,498.108203 500.841406,497.206662 L560.790686,450.882282 C561.22019,450.549696 561.588337,450.145292 561.878391,449.685807 L571.335847,434.71034 C572.23669,433.28447 572.294561,431.482785 571.487149,430.001832 L568.277025,424.117767 C567.550494,422.784631 566.218753,421.891458 564.70991,421.723421 L537.734826,418.726654 C535.158499,418.440783 533.314282,416.10152 533.635712,413.530074 L535.777654,396.393839 C535.85226,395.800482 535.810425,395.198061 535.656334,394.620043 L532.447604,382.584866 C532.22309,381.746079 531.768485,380.985382 531.135385,380.391328 L523.186074,372.939154 C520.500977,370.422093 521.666774,365.930429 525.237375,365.037953 L532.368118,363.255093 C534.438243,362.737736 535.889911,360.878179 535.889911,358.745301 L535.889911,348.879956 C535.889911,347.81526 535.524554,346.78194 534.8545,345.955006 L521.98681,330.060568 C520.691325,328.459689 520.602775,326.19782 521.769269,324.501419 L528.575792,314.601212 C529.577736,313.143966 529.665589,311.244665 528.803095,309.700264 L514.398673,283.92305 C513.186858,281.754612 510.483632,280.921402 508.261507,282.032814 L504.064081,284.132224 C499.882692,286.22257 495.57789,281.528007 498.022437,277.543241 L532.535457,221.272636 C532.875016,220.717627 533.327529,220.240013 533.864409,219.871867 L546.525017,211.167438 C547.588318,210.436723 548.29951,209.297422 548.489858,208.022157 L560.83531,125.13276 C561.180447,122.812323 559.742724,120.598564 557.482947,119.969648 L452.987267,90.8923645 C452.739744,90.8233371 452.499891,90.7347868 452.267708,90.6260163 L396.51934,64.6103436 C396.068221,64.3997751 395.654057,64.1187846 395.292883,63.777831 L329.728674,1.85534257 C328.482694,0.67908722 326.691467,0.283051037 325.066185,0.824811802" id="Page-1"></path>
                        </g>
                        <g id="nom-ville" transform="translate(143.000000, 47.000000)" font-size="12" font-family="Gotham-Book, Gotham" fill="#000000" font-weight="300">
                            <text id="Aubervilliers">
                                <tspan x="66.4" y="100.8">Aubervilliers</tspan>
                            </text>
                            <text id="SBL">
                                <tspan x="181" y="0">SBL</tspan>
                            </text>
                            <text id="Pastural">
                                <tspan x="195" y="58.6">Pastural</tspan>
                            </text>
                            <text id="Cordier">
                                <tspan x="271" y="106.6">Cordier</tspan>
                            </text>
                            <text id="Poreaux">
                                <tspan x="275" y="59">Poreaux</tspan>
                            </text>
                            <text id="Azur-production">
                                <tspan x="352" y="81">Azur</tspan>
                                <tspan x="352" y="81.0001">production</tspan>
                            </text>
                            <text id="grigny">
                                <tspan x="164.4" y="135.4">grigny</tspan>
                            </text>
                            <text id="tours">
                                <tspan x="97.4" y="163.4">tours</tspan>
                            </text>
                            <text id="Gémenos">
                                <tspan x="308.4" y="410.4">Gémenos</tspan>
                            </text>
                            <text id="Nancy">
                                <tspan x="375.4" y="63.4">Nancy</tspan>
                            </text>
                            <text id="technifen">
                                <tspan x="334.8" y="163.6">technifen</tspan>
                            </text>
                            <text id="giraud">
                                <tspan x="201.2" y="266.6">giraud</tspan>
                            </text>
                            <text id="menuiseries-du-centr">
                                <tspan x="188" y="322.4">menuiseries</tspan>
                                <tspan x="188" y="322.4001">du centre</tspan>
                            </text>
                            <text id="Lagrange">
                                <tspan x="100.6" y="411.6">Lagrange</tspan>
                            </text>
                            <text id="Nantes">
                                <tspan x="12.8" y="176.4">Nantes</tspan>
                            </text>
                            <text id="ouest-production">
                                <tspan x="0" y="230.4">ouest production</tspan>
                            </text>
                            <text id="cougnaud-/-slc">
                                <tspan x="23.8" y="205.2">cougnaud / slc</tspan>
                            </text>
                        </g>
                        <g id="usine" transform="translate(126.000000, 25.000000)" fill="#A78F80">
                            <rect id="Rectangle" transform="translate(363.616314, 94.754476) rotate(-45.000000) translate(-363.616314, -94.754476) " x="357.619335" y="88.7570332" width="11.9939577" height="11.9948849" rx="3.6"></rect>
                            <rect id="Rectangle-Copy-13" transform="translate(386.404834, 174.125320) rotate(-45.000000) translate(-386.404834, -174.125320) " x="380.407855" y="168.127877" width="11.9939577" height="11.9948849" rx="3.6"></rect>
                            <rect id="Rectangle-Copy-2" transform="translate(279.658610, 104.350384) rotate(-45.000000) translate(-279.658610, -104.350384) " x="273.661631" y="98.3529412" width="11.9939577" height="11.9948849" rx="3.6"></rect>
                            <rect id="Rectangle-Copy-3" transform="translate(291.652568, 116.345269) rotate(-45.000000) translate(-291.652568, -116.345269) " x="285.655589" y="110.347826" width="11.9939577" height="11.9948849" rx="3.6"></rect>
                            <rect id="Rectangle-Copy-4" transform="translate(308.444109, 105.549872) rotate(-45.000000) translate(-308.444109, -105.549872) " x="302.44713" y="99.5524297" width="11.9939577" height="11.9948849" rx="3.6"></rect>
                            <rect id="Rectangle-Copy-5" transform="translate(207.694864, 8.595908) rotate(-45.000000) translate(-207.694864, -8.595908) " x="201.697885" y="2.59846547" width="11.9939577" height="11.9948849" rx="3.6"></rect>
                            <rect id="Rectangle-Copy-6" transform="translate(28.984894, 232.900256) rotate(-45.000000) translate(-28.984894, -232.900256) " x="22.9879154" y="226.902813" width="11.9939577" height="11.9948849" rx="3.6"></rect>
                            <rect id="Rectangle-Copy-10" transform="translate(8.595166, 243.695652) rotate(-45.000000) translate(-8.595166, -243.695652) " x="2.59818731" y="237.69821" width="11.9939577" height="11.9948849" rx="3.6"></rect>
                            <rect id="Rectangle-Copy-7" transform="translate(280.858006, 295.273657) rotate(-45.000000) translate(-280.858006, -295.273657) " x="274.861027" y="289.276215" width="11.9939577" height="11.9948849" rx="3.6"></rect>
                            <rect id="Rectangle-Copy-8" transform="translate(192.102719, 356.447570) rotate(-45.000000) translate(-192.102719, -356.447570) " x="186.10574" y="350.450128" width="11.9939577" height="11.9948849" rx="3.6"></rect>
                            <rect id="Rectangle-Copy-9" transform="translate(144.126888, 458.404092) rotate(-45.000000) translate(-144.126888, -458.404092) " x="138.129909" y="452.40665" width="11.9939577" height="11.9948849" rx="3.6"></rect>
                        </g>
                        <g id="CALL-CENTER-SAV" transform="translate(220.000000, 112.000000)" fill="#AA192D">
                            <circle id="Oval" cx="287" cy="6" r="6"></circle>
                            <circle id="Oval-Copy" cx="265" cy="373" r="6"></circle>
                            <circle id="Oval-Copy-2" cx="6" cy="106" r="6"></circle>
                            <circle id="Oval-Copy-2" cx="111" cy="60" r="6"></circle>
                        </g>
                        <g id="service-support" transform="translate(139.000000, 148.000000)" fill="#EA0028">
                            <rect id="Rectangle-Copy-11" x="0" y="75.9452055" width="11.9745223" height="12.0547945" rx="3.6"></rect>
                            <rect id="Rectangle-Copy-12" x="176.025478" y="0" width="11.9745223" height="12.0547945" rx="3.6"></rect>
                        </g>
                        <g id="légende" transform="translate(95.000000, 618.000000)">
                            <text id="call-center-sav" font-family="Gotham-Book, Gotham" font-size="12" font-weight="300" fill="#2B2B2B">
                                <tspan x="296" y="1">call center sav</tspan>
                            </text>
                            <circle id="Oval-Copy-3" fill="#AA192D" cx="283" cy="7" r="5"></circle>
                            <text id="USINES" font-family="Gotham-Book, Gotham" font-size="12" font-weight="300" fill="#2B2B2B">
                                <tspan x="202" y="1">USINES</tspan>
                            </text>
                            <rect id="Rectangle-Copy-14" fill="#A78F80" transform="translate(187.071068, 7.071068) rotate(-45.000000) translate(-187.071068, -7.071068) " x="182.071068" y="2.07106781" width="10" height="10" rx="3"></rect>
                            <text id="services-supports" font-family="Gotham-Book, Gotham" font-size="12" font-weight="300" fill="#2B2B2B">
                                <tspan x="17" y="1">services supports</tspan>
                            </text>
                            <rect id="Path" fill="#EA0028" x="0" y="2" width="10" height="10" rx="3"></rect>
                        </g>
                    </g>
                    <g id="Région-ile-de-france" transform="translate(40.000000, 0.000000)">
                        <g id="fleche-copy-2" filter="url(#filter-1)" transform="translate(168.572212, 108.795330) scale(-1, 1) rotate(23.000000) translate(-168.572212, -108.795330) translate(92.572212, 23.795330)" stroke="#404040">
                            <path d="M5,169 C87.9251018,142.63927 126.970725,97.1490479 151.970725,0.149047907" id="Path-2" transform="translate(78.485362, 84.574524) rotate(-180.000000) translate(-78.485362, -84.574524) "></path>
                            <polyline id="Path-3" transform="translate(8.396376, 165.165208) rotate(-177.000000) translate(-8.396376, -165.165208) " points="1.05721017 166.752266 11.5766817 160.780066 15.7355425 169.550349"></polyline>
                        </g>
                        <text id="Siège" font-family="Belinda" font-size="26" font-weight="normal" fill="#2B2B2B">
                            <tspan x="0" y="66">Siège </tspan>
                        </text>
                    </g>
                </g>
            </g>
        </g>
    </g>
</svg>