     <link href="../css/plugins/plugins.css" rel="stylesheet">
    <link href="./css/style.css" rel="stylesheet">

<?xml version="1.0" encoding="UTF-8" standalone="no"?>
<svg width="323px" height="430px" viewBox="0 0 323 430" version="1.1" xmlns="http://www.w3.org/2000/svg" xmlns:xlink="http://www.w3.org/1999/xlink">
    <!-- Generator: Sketch 46.2 (44496) - http://www.bohemiancoding.com/sketch -->

    <title>map</title>
    <desc>Created with Sketch.</desc>
    <defs>
        <filter x="-14.6%" y="-6.0%" width="131.2%" height="118.1%" filterUnits="objectBoundingBox" id="filter-1">
            <feOffset dx="0" dy="2" in="SourceAlpha" result="shadowOffsetOuter1"></feOffset>
            <feGaussianBlur stdDeviation="2" in="shadowOffsetOuter1" result="shadowBlurOuter1"></feGaussianBlur>
            <feColorMatrix values="0 0 0 0 0   0 0 0 0 0   0 0 0 0 0  0 0 0 0.5 0" type="matrix" in="shadowBlurOuter1" result="shadowMatrixOuter1"></feColorMatrix>
            <feMerge>
                <feMergeNode in="shadowMatrixOuter1"></feMergeNode>
                <feMergeNode in="SourceGraphic"></feMergeNode>
            </feMerge>
        </filter>
    </defs>
    <g id="mobile-375" stroke="none" stroke-width="1" fill="none" fill-rule="evenodd">
        <g id="Usine" transform="translate(-19.000000, -1623.000000)">
            <g id="partie-1" transform="translate(-14.000000, 599.000000)">
                <polygon id="Mask" fill="#F8F8F8" points="14 0 389 0 389 1511 14 1511"></polygon>
                <g id="map" transform="translate(25.000000, 1022.000000)">
                    <g id="Map" transform="translate(0.000000, 2.000000)">
                        <g id="carte" fill="#DDDDDD" opacity="0.5">
                            <path d="M186.375594,0.410770594 L166.62364,6.9946196 C165.494189,7.37096741 164.742307,8.4397952 164.769567,9.62986802 L165.237459,30.2268753 C165.261057,31.2647815 164.689822,32.2257908 163.766244,32.7005993 L131.379989,49.3567364 C129.404672,50.3722652 129.420539,53.201587 131.407249,54.1951453 L133.749963,55.3665024 C135.7798,56.3812175 135.740335,59.291505 133.684052,60.2508867 L123.030764,65.2223397 C122.495333,65.4725601 121.892769,65.5405061 121.315025,65.4168199 L100.700522,60.9995137 C99.6711601,60.7789943 98.8623175,59.9827644 98.6255235,58.957064 L96.1859759,48.3839282 C95.901579,47.1527622 94.8058983,46.2812628 93.5425902,46.2812628 L84.3104732,46.2812628 C82.5316704,46.2812628 81.2341859,47.9640461 81.6870238,49.6838539 L90.9553516,84.9030926 C91.4029004,86.6049984 90.1371511,88.2759827 88.3778777,88.3060905 L60.6811197,88.775203 C59.7892771,88.7906638 58.946258,88.3658993 58.4279152,87.6400566 L52.0291886,78.6817581 C51.3904145,77.7870674 50.2747975,77.3667785 49.2043423,77.6169989 L10.8660956,86.5793661 C9.50066505,86.8983463 8.60312637,88.2064092 8.79719979,89.5954378 L11.5675266,109.449107 C11.6928402,110.34746 12.2587859,111.123753 13.0761727,111.517596 L71.6769857,139.771349 C72.8109115,140.318579 73.4199846,141.574157 73.146573,142.803695 L71.6090396,149.723613 C71.4764025,150.320073 71.548824,150.943386 71.8153189,151.493464 L79.6868878,167.762268 L92.6186055,195.241355 C92.8285466,195.687683 92.9127671,196.183242 92.8623161,196.673918 L85.2922324,270.211467 C85.2381197,270.739575 85.0298061,271.240422 84.6933308,271.65176 L77.2070608,280.801691 C76.1764781,282.06093 76.4787769,283.936973 77.8527516,284.809287 L109.476546,304.887951 C109.857777,305.130441 110.293119,305.272843 110.743923,305.304171 L139.416744,307.281523 C140.895689,307.383646 142.183002,306.278607 142.306282,304.800476 L142.311571,304.734564 C142.469027,302.848349 144.460212,301.698963 146.171882,302.506178 L180.610352,318.741212 C181.054646,318.950747 181.547763,319.035374 182.036812,318.986551 L206.104356,316.579959 C207.631718,316.426979 208.728212,315.038764 208.522747,313.517505 L206.339523,297.36425 C206.214616,296.434976 206.577537,295.506516 207.300532,294.909241 L230.440023,275.794434 C231.127621,275.226047 232.051199,275.031974 232.909272,275.276498 L286.544735,290.525705 C287.3727,290.760871 288.263729,290.589175 288.945223,290.063102 L323.927261,263.031564 C324.177889,262.837491 324.392712,262.601511 324.561967,262.333388 L330.08065,253.594796 C330.606316,252.762762 330.640086,251.711429 330.168939,250.847253 L328.295744,247.41374 C327.871793,246.635819 327.094686,246.114628 326.214235,246.016575 L310.473539,244.26788 C308.970182,244.101066 307.894031,242.736042 308.081594,241.235533 L309.331476,231.236074 C309.37501,230.889834 309.350598,230.538304 309.260682,230.201015 L307.388301,223.178162 C307.257291,222.688706 306.992016,222.244819 306.622585,221.898172 L301.983946,217.549626 C300.417118,216.080852 301.097393,213.459844 303.180935,212.93906 L307.341918,211.898713 C308.549893,211.596821 309.396981,210.511718 309.396981,209.267126 L309.396981,203.510428 C309.396981,202.889149 309.183785,202.286179 308.79279,201.80364 L301.284142,192.528803 C300.528192,191.594646 300.47652,190.274784 301.157201,189.284888 L305.128993,183.507847 C305.713654,182.657505 305.764919,181.549211 305.26163,180.648011 L296.856258,165.606304 C296.149131,164.340962 294.571725,163.854761 293.275054,164.5033 L290.825742,165.728363 C288.385787,166.948137 285.873818,164.208731 287.300278,161.883512 L307.439565,129.048081 C307.637707,128.724218 307.901761,128.445518 308.215045,128.230694 L315.602854,123.151423 C316.22332,122.725031 316.638319,122.060217 316.749393,121.316066 L323.9533,72.9478448 C324.154697,71.5938064 323.315747,70.302018 321.997106,69.935028 L261.021029,52.9676411 C260.876593,52.9273617 260.736632,52.8756902 260.601147,52.8122196 L228.070456,37.631366 C227.807216,37.5084935 227.565539,37.3445279 227.354785,37.1455721 L189.096283,1.01211337 C188.36922,0.325736331 187.32399,0.09463843 186.375594,0.410770594" id="Page-1"></path>
                        </g>
                        <text id="Aubervilliers" font-family="Gotham-Book, Gotham" font-size="12" font-weight="300" fill="#000000">
                            <tspan x="79.989" y="84.538">Aubervilliers</tspan>
                        </text>
                        <g id="usine" transform="translate(74.615000, 23.115000)" fill="#A78F80">
                            <rect id="Rectangle" transform="translate(213.300544, 54.451368) rotate(-45.000000) translate(-213.300544, -54.451368) " x="209.792311" y="50.9428645" width="7.01646526" height="7.01700767" rx="2.106"></rect>
                            <rect id="Rectangle-Copy-13" transform="translate(226.631828, 94.448312) rotate(-45.000000) translate(-226.631828, -94.448312) " x="223.123595" y="90.9398082" width="7.01646526" height="7.01700767" rx="2.106"></rect>
                            <rect id="Rectangle-Copy-2" transform="translate(164.185287, 60.064974) rotate(-45.000000) translate(-164.185287, -60.064974) " x="160.677054" y="56.5564706" width="7.01646526" height="7.01700767" rx="2.106"></rect>
                            <rect id="Rectangle-Copy-3" transform="translate(171.201752, 67.081982) rotate(-45.000000) translate(-171.201752, -67.081982) " x="167.69352" y="63.5734783" width="7.01646526" height="7.01700767" rx="2.106"></rect>
                            <rect id="Rectangle-Copy-4" transform="translate(181.024804, 60.766675) rotate(-45.000000) translate(-181.024804, -60.766675) " x="177.516571" y="57.2581714" width="7.01646526" height="7.01700767" rx="2.106"></rect>
                            <rect id="Rectangle-Copy-5" transform="translate(121.086495, 5.613606) rotate(-45.000000) translate(-121.086495, -5.613606) " x="117.578263" y="2.1051023" width="7.01646526" height="7.01700767" rx="2.106"></rect>
                            <rect id="Rectangle-Copy-6" transform="translate(17.541163, 128.831650) rotate(-45.000000) translate(-17.541163, -128.831650) " x="14.0329305" y="125.323146" width="7.01646526" height="7.01700767" rx="2.106"></rect>
                            <rect id="Rectangle-Copy-10" transform="translate(5.613172, 135.146957) rotate(-45.000000) translate(-5.613172, -135.146957) " x="2.10493958" y="131.638453" width="7.01646526" height="7.01700767" rx="2.106"></rect>
                            <rect id="Rectangle-Copy-7" transform="translate(164.886934, 165.320090) rotate(-45.000000) translate(-164.886934, -165.320090) " x="161.378701" y="161.811586" width="7.01646526" height="7.01700767" rx="2.106"></rect>
                            <rect id="Rectangle-Copy-8" transform="translate(112.965091, 201.106829) rotate(-45.000000) translate(-112.965091, -201.106829) " x="109.456858" y="197.598325" width="7.01646526" height="7.01700767" rx="2.106"></rect>
                            <rect id="Rectangle-Copy-9" transform="translate(84.899230, 260.751394) rotate(-45.000000) translate(-84.899230, -260.751394) " x="81.390997" y="257.24289" width="7.01646526" height="7.01700767" rx="2.106"></rect>
                        </g>
                        <g id="service-support" transform="translate(82.805000, 87.655000)" fill="#EA0028">
                            <rect id="Rectangle-Copy-11" x="0" y="44.4279452" width="7.00509554" height="7.05205479" rx="2.106"></rect>
                            <rect id="Rectangle-Copy-12" x="102.974904" y="0" width="7.00509554" height="7.05205479" rx="2.106"></rect>
                        </g>
                        <g id="CALL-CENTER-SAV" transform="translate(125.000000, 72.000000)" fill="#AA192D">
                            <circle id="Oval" cx="172.5" cy="3.5" r="3.5"></circle>
                            <circle id="Oval-Copy" cx="155.5" cy="211.5" r="3.5"></circle>
                            <circle id="Oval-Copy-2" cx="3.5" cy="53.5" r="3.5"></circle>
                            <circle id="Oval-Copy-2" cx="69.5" cy="29.5" r="3.5"></circle>
                        </g>
                    </g>
                    <g id="légende" transform="translate(46.000000, 380.000000)">
                        <text id="Call-center-sav" font-family="Gotham-Book, Gotham" font-size="13" font-weight="300" fill="#2B2B2B">
                            <tspan x="17" y="41">Call center sav</tspan>
                        </text>
                        <circle id="Oval-Copy-3" fill="#AA192D" cx="5" cy="47" r="5"></circle>
                        <text id="USINES" font-family="Gotham-Book, Gotham" font-size="13" font-weight="300" fill="#2B2B2B">
                            <tspan x="202" y="1">USINES</tspan>
                        </text>
                        <rect id="Rectangle-Copy-14" fill="#A78F80" transform="translate(187.071068, 7.071068) rotate(-45.000000) translate(-187.071068, -7.071068) " x="182.071068" y="2.07106781" width="10" height="10" rx="3"></rect>
                        <text id="services-supports" font-family="Gotham-Book, Gotham" font-size="13" font-weight="300" fill="#2B2B2B">
                            <tspan x="17" y="1">services supports</tspan>
                        </text>
                        <rect id="Path" fill="#EA0028" x="0" y="2" width="10" height="10" rx="3"></rect>
                    </g>
                    <g id="Région-ile-de-france" transform="translate(55.000000, 0.000000)">
                        <g id="fleche-copy-2" filter="url(#filter-1)" transform="translate(97.435268, 49.519272) scale(-1, 1) rotate(23.000000) translate(-97.435268, -49.519272) translate(73.435268, 8.019272)" stroke="#404040">
                            <path d="M3.86306938,82 C27.8040384,70.5462436 53.7117328,48.8934121 46.7974081,0.764288749" id="Path-2" transform="translate(25.898704, 41.382144) rotate(-180.000000) translate(-25.898704, -41.382144) "></path>
                            <polyline id="Path-3" transform="translate(8.396376, 78.165208) rotate(-177.000000) translate(-8.396376, -78.165208) " points="1.05721017 79.7522664 11.5766817 73.780066 15.7355425 82.5503491"></polyline>
                        </g>
                        <text id="Siège" font-family="Belinda" font-size="26" font-weight="normal" fill="#2B2B2B">
                            <tspan x="0" y="25">Siège </tspan>
                        </text>
                    </g>
                </g>
            </g>
        </g>
    </g>
</svg>