<?xml version="1.0" encoding="UTF-8" standalone="no"?>
<svg width="117px" height="91px" viewBox="0 0 117 91" version="1.1" xmlns="http://www.w3.org/2000/svg" xmlns:xlink="http://www.w3.org/1999/xlink">
    <!-- Generator: Sketch 46.2 (44496) - http://www.bohemiancoding.com/sketch -->
    <title>play-button</title>
    <desc>Created with Sketch.</desc>
    <defs></defs>
    <g id="mobile-375" stroke="none" stroke-width="1" fill="none" fill-rule="evenodd">
        <g id="Usine-MOBILE-375" transform="translate(-141.000000, -3988.000000)" fill="#FFFFFF">
            <g id="partie-4" transform="translate(19.000000, 3548.000000)">
                <g id="play-button" transform="translate(122.000000, 440.000000)">
                    <path d="M67.3958835,28.2962822 L55.313797,19.286088 C54.8703999,18.9563499 54.2817855,18.9066905 53.7957913,19.1629328 C53.3059246,19.4171887 53,19.933646 53,20.4918172 L53,38.5062465 C53,39.0703768 53.3059246,39.5848478 53.7957913,39.8391037 C54.0029681,39.9463679 54.2295072,40 54.4579825,40 C54.7561622,40 55.0582144,39.9026677 55.313797,39.7099893 L67.3958835,30.7077407 C67.7773211,30.4197164 67.9999878,29.9747685 67.9999878,29.5020114 C68.001924,29.0213088 67.7734487,28.5783473 67.3958835,28.2962822 Z" id="Shape" fill-rule="nonzero"></path>
                    <path d="M58.5009817,0 C42.2053509,0 29,13.2071089 29,29.504909 C29,45.7968183 42.2053509,59 58.5009817,59 C74.7926858,59 88,45.7948547 88,29.504909 C88.0019633,13.2071089 74.7926858,0 58.5009817,0 Z M58.5009817,54.0772789 C44.9304516,54.0772789 33.9279558,43.0792092 33.9279558,29.504909 C33.9279558,15.9364995 44.9304516,4.92468466 58.5009817,4.92468466 C72.0695484,4.92468466 83.0700809,15.9345359 83.0700809,29.504909 C83.0720442,43.0792092 72.0695484,54.0772789 58.5009817,54.0772789 Z" id="Shape" fill-rule="nonzero"></path>
                    <text id="Voir-la-vidéo" font-family="ArialMT, Arial" font-size="16" font-weight="normal" line-spacing="22" text-transform="uppercase">
                        <tspan x="14.9765625" y="87">Voir la video</tspan>
                    </text>
                </g>
            </g>
        </g>
    </g>
</svg>