<?xml version="1.0" encoding="UTF-8" standalone="no"?>
<svg width="59px" height="59px" viewBox="0 0 59 59" version="1.1" xmlns="http://www.w3.org/2000/svg" xmlns:xlink="http://www.w3.org/1999/xlink">
    <!-- Generator: Sketch 46.2 (44496) - http://www.bohemiancoding.com/sketch -->
    <title>play-button</title>
    <desc>Created with Sketch.</desc>
    <defs></defs>
    <g id="Desktop" stroke="none" stroke-width="1" fill="none" fill-rule="evenodd">
        <g id="Dispatch" transform="translate(-611.000000, -583.000000)" fill-rule="nonzero" fill="#FFFFFF">
            <g id="video" transform="translate(0.000000, 119.000000)">
                <g id="play-button" transform="translate(611.000000, 464.000000)">
                    <path d="M38.3958835,28.2962822 L26.313797,19.286088 C25.8703999,18.9563499 25.2817855,18.9066905 24.7957913,19.1629328 C24.3059246,19.4171887 24,19.933646 24,20.4918172 L24,38.5062465 C24,39.0703768 24.3059246,39.5848478 24.7957913,39.8391037 C25.0029681,39.9463679 25.2295072,40 25.4579825,40 C25.7561622,40 26.0582144,39.9026677 26.313797,39.7099893 L38.3958835,30.7077407 C38.7773211,30.4197164 38.9999878,29.9747685 38.9999878,29.5020114 C39.001924,29.0213088 38.7734487,28.5783473 38.3958835,28.2962822 Z" id="Shape"></path>
                    <path d="M29.5009817,0 C13.2053509,0 0,13.2071089 0,29.504909 C0,45.7968183 13.2053509,59 29.5009817,59 C45.7926858,59 59,45.7948547 59,29.504909 C59.0019633,13.2071089 45.7926858,0 29.5009817,0 Z M29.5009817,54.0772789 C15.9304516,54.0772789 4.92795581,43.0792092 4.92795581,29.504909 C4.92795581,15.9364995 15.9304516,4.92468466 29.5009817,4.92468466 C43.0695484,4.92468466 54.0700809,15.9345359 54.0700809,29.504909 C54.0720442,43.0792092 43.0695484,54.0772789 29.5009817,54.0772789 Z" id="Shape"></path>
                </g>
            </g>
        </g>
    </g>
</svg>